HIERARCHY
ROOT Hips
{
	OFFSET -14.64140 90.27770 -84.91600
	CHANNELS 6 Xposition Yposition Zposition Zrotation Xrotation Yrotation
	JOINT Spine
	{
		OFFSET 0.00000 13.20850 -1.60436
		CHANNELS 3 Zrotation Xrotation Yrotation
		JOINT Spine1
		{
			OFFSET 0.00000 8.61716 0.00000
			CHANNELS 3 Zrotation Xrotation Yrotation
			JOINT Spine2
			{
				OFFSET 0.00000 8.61717 0.00000
				CHANNELS 3 Zrotation Xrotation Yrotation
				JOINT Spine3
				{
					OFFSET 0.00000 8.61717 0.00000
					CHANNELS 3 Zrotation Xrotation Yrotation
					JOINT Neck
					{
						OFFSET 0.00000 11.07920 1.10792
						CHANNELS 3 Zrotation Xrotation Yrotation
						JOINT Neck1
						{
							OFFSET 0.00000 7.08032 0.00000
							CHANNELS 3 Zrotation Xrotation Yrotation
							JOINT Head
							{
								OFFSET 0.00000 7.08031 0.00000
								CHANNELS 3 Zrotation Xrotation Yrotation
								End site
								{
									OFFSET 0.00000 0.00000 0.00000
								}
							}
						}
					}
					JOINT RightShoulder
					{
						OFFSET -0.01000 7.91373 5.19711
						CHANNELS 3 Zrotation Xrotation Yrotation
						JOINT RightArm
						{
							OFFSET -18.41580 0.00000 0.00000
							CHANNELS 3 Zrotation Xrotation Yrotation
							JOINT RightForeArm
							{
								OFFSET -29.11090 0.00000 0.00000
								CHANNELS 3 Zrotation Xrotation Yrotation
								JOINT RightHand
								{
									OFFSET -24.65040 0.00000 0.00000
									CHANNELS 3 Zrotation Xrotation Yrotation
									JOINT RightHandThumb1
									{
										OFFSET -5.35114 -0.85590 3.97906
										CHANNELS 3 Zrotation Xrotation Yrotation
										JOINT RightHandThumb2
										{
											OFFSET -4.52789 0.00000 0.00000
											CHANNELS 3 Zrotation Xrotation Yrotation
											JOINT RightHandThumb3
											{
												OFFSET -2.46976 0.00000 0.00000
												CHANNELS 3 Zrotation Xrotation Yrotation
												End site
												{
													OFFSET 0.00000 0.00000 0.00000
												}
											}
										}
									}
									JOINT RightHandIndex1
									{
										OFFSET -14.26970 0.00000 2.88139
										CHANNELS 3 Zrotation Xrotation Yrotation
										JOINT RightHandIndex2
										{
											OFFSET -5.48836 0.00000 0.00000
											CHANNELS 3 Zrotation Xrotation Yrotation
											JOINT RightHandIndex3
											{
												OFFSET -3.01859 0.00000 0.00000
												CHANNELS 3 Zrotation Xrotation Yrotation
												End site
												{
													OFFSET 0.00000 0.00000 0.00000
												}
											}
										}
									}
									JOINT RightHandMiddle1
									{
										OFFSET -14.26970 0.00000 -0.09147
										CHANNELS 3 Zrotation Xrotation Yrotation
										JOINT RightHandMiddle2
										{
											OFFSET -6.17441 0.00000 0.00000
											CHANNELS 3 Zrotation Xrotation Yrotation
											JOINT RightHandMiddle3
											{
												OFFSET -3.56743 0.00000 0.00000
												CHANNELS 3 Zrotation Xrotation Yrotation
												End site
												{
													OFFSET 0.00000 0.00000 0.00000
												}
											}
										}
									}
									JOINT RightHandRing1
									{
										OFFSET -12.69180 0.00000 -3.06433
										CHANNELS 3 Zrotation Xrotation Yrotation
										JOINT RightHandRing2
										{
											OFFSET -5.62556 0.00000 0.00000
											CHANNELS 3 Zrotation Xrotation Yrotation
											JOINT RightHandRing3
											{
												OFFSET -3.56744 0.00000 0.00000
												CHANNELS 3 Zrotation Xrotation Yrotation
												End site
												{
													OFFSET 0.00000 0.00000 0.00000
												}
											}
										}
									}
									JOINT RightHandPinky1
									{
										OFFSET -11.11390 0.00000 -6.03719
										CHANNELS 3 Zrotation Xrotation Yrotation
										JOINT RightHandPinky2
										{
											OFFSET -4.52789 0.00000 0.00000
											CHANNELS 3 Zrotation Xrotation Yrotation
											JOINT RightHandPinky3
											{
												OFFSET -2.46976 0.00000 0.00000
												CHANNELS 3 Zrotation Xrotation Yrotation
												End site
												{
													OFFSET 0.00000 0.00000 0.00000
												}
											}
										}
									}
								}
							}
						}
					}
					JOINT LeftShoulder
					{
						OFFSET 0.01000 7.91373 5.19711
						CHANNELS 3 Zrotation Xrotation Yrotation
						JOINT LeftArm
						{
							OFFSET 18.41580 0.00000 0.00000
							CHANNELS 3 Zrotation Xrotation Yrotation
							JOINT LeftForeArm
							{
								OFFSET 29.11090 0.00000 0.00000
								CHANNELS 3 Zrotation Xrotation Yrotation
								JOINT LeftHand
								{
									OFFSET 24.65040 0.00000 0.00000
									CHANNELS 3 Zrotation Xrotation Yrotation
									JOINT LeftHandThumb1
									{
										OFFSET 5.35114 -0.85590 3.97906
										CHANNELS 3 Zrotation Xrotation Yrotation
										JOINT LeftHandThumb2
										{
											OFFSET 4.52789 0.00000 0.00000
											CHANNELS 3 Zrotation Xrotation Yrotation
											JOINT LeftHandThumb3
											{
												OFFSET 2.46977 0.00000 0.00000
												CHANNELS 3 Zrotation Xrotation Yrotation
												End site
												{
													OFFSET 0.00000 0.00000 0.00000
												}
											}
										}
									}
									JOINT LeftHandIndex1
									{
										OFFSET 14.26970 0.00000 2.88139
										CHANNELS 3 Zrotation Xrotation Yrotation
										JOINT LeftHandIndex2
										{
											OFFSET 5.48836 0.00000 0.00000
											CHANNELS 3 Zrotation Xrotation Yrotation
											JOINT LeftHandIndex3
											{
												OFFSET 3.01859 0.00000 0.00000
												CHANNELS 3 Zrotation Xrotation Yrotation
												End site
												{
													OFFSET 0.00000 0.00000 0.00000
												}
											}
										}
									}
									JOINT LeftHandMiddle1
									{
										OFFSET 14.26970 0.00000 -0.09147
										CHANNELS 3 Zrotation Xrotation Yrotation
										JOINT LeftHandMiddle2
										{
											OFFSET 6.17440 0.00000 0.00000
											CHANNELS 3 Zrotation Xrotation Yrotation
											JOINT LeftHandMiddle3
											{
												OFFSET 3.56744 0.00000 0.00000
												CHANNELS 3 Zrotation Xrotation Yrotation
												End site
												{
													OFFSET 0.00000 0.00000 0.00000
												}
											}
										}
									}
									JOINT LeftHandRing1
									{
										OFFSET 12.69180 0.00000 -3.06433
										CHANNELS 3 Zrotation Xrotation Yrotation
										JOINT LeftHandRing2
										{
											OFFSET 5.62556 0.00000 0.00000
											CHANNELS 3 Zrotation Xrotation Yrotation
											JOINT LeftHandRing3
											{
												OFFSET 3.56744 0.00000 0.00000
												CHANNELS 3 Zrotation Xrotation Yrotation
												End site
												{
													OFFSET 0.00000 0.00000 0.00000
												}
											}
										}
									}
									JOINT LeftHandPinky1
									{
										OFFSET 11.11390 0.00000 -6.03719
										CHANNELS 3 Zrotation Xrotation Yrotation
										JOINT LeftHandPinky2
										{
											OFFSET 4.52789 0.00000 0.00000
											CHANNELS 3 Zrotation Xrotation Yrotation
											JOINT LeftHandPinky3
											{
												OFFSET 2.46976 0.00000 0.00000
												CHANNELS 3 Zrotation Xrotation Yrotation
												End site
												{
													OFFSET 0.00000 0.00000 0.00000
												}
											}
										}
									}
								}
							}
						}
					}
					JOINT pCube4
					{
						OFFSET 0.00000 10.91090 1.10792
						CHANNELS 3 Zrotation Xrotation Yrotation
						End site
						{
							OFFSET 0.00000 0.00000 0.00000
						}
					}
				}
			}
		}
	}
	JOINT RightUpLeg
	{
		OFFSET -9.98441 0.00000 0.00000
		CHANNELS 3 Zrotation Xrotation Yrotation
		JOINT RightLeg
		{
			OFFSET 0.00000 -42.11790 0.00000
			CHANNELS 3 Zrotation Xrotation Yrotation
			JOINT RightFoot
			{
				OFFSET 0.00000 -45.00020 -0.00001
				CHANNELS 3 Zrotation Xrotation Yrotation
				JOINT RightForeFoot
				{
					OFFSET 0.00000 -3.74820 0.00000
					CHANNELS 3 Zrotation Xrotation Yrotation
					JOINT RightToeBase
					{
						OFFSET 0.00000 0.06325 14.43120
						CHANNELS 3 Zrotation Xrotation Yrotation
						End site
						{
							OFFSET 0.00000 0.00000 0.00000
						}
					}
				}
			}
		}
	}
	JOINT LeftUpLeg
	{
		OFFSET 9.98441 0.00000 0.00000
		CHANNELS 3 Zrotation Xrotation Yrotation
		JOINT LeftLeg
		{
			OFFSET 0.00000 -42.11800 0.00000
			CHANNELS 3 Zrotation Xrotation Yrotation
			JOINT LeftFoot
			{
				OFFSET 0.00000 -45.00070 0.00000
				CHANNELS 3 Zrotation Xrotation Yrotation
				JOINT LeftForeFoot
				{
					OFFSET 0.00000 -3.74824 0.00000
					CHANNELS 3 Zrotation Xrotation Yrotation
					JOINT LeftToeBase
					{
						OFFSET 0.00000 0.06325 14.43110
						CHANNELS 3 Zrotation Xrotation Yrotation
						End site
						{
							OFFSET 0.00000 0.00000 0.00000
						}
					}
				}
			}
		}
	}
}
MOTION
Frames: 4
Frame Time: 0.050000
0.04184439146263118 0.015666544760951636 -0.041086657361914525 0.04535395773269985 0.01679051410897948 0.01307259335784619 4.856337449737287 1.952797977897654 -2.246724196667317 -0.751962662203249 3.4306919894645103 0.3841121760630253 -0.8780293899665609 -1.6174297665332606 2.1477151049870606 -1.037911288701599 -0.8044569143991805 -0.03478247216255061 1.2634640703371498 13.85210186168613 -2.7941875348700957 0.5231159258824596 -0.5186762196344669 -6.7125536531025904 1.60209968541065 -17.385429699017475 -0.6160560415989107 -15.443340868787791 4.670167298242505 -18.81512909720476 80.42436018941106 -12.367533314152091 38.98056833130147 3.3098256854659116 4.909081565568869 103.65521055906177 20.004628929776363 -0.874516769078391 -5.693604503804164 4.492212275509734 -0.1476945028990651 -1.6244018196189762 0.027961755542072413 -0.03390327140475557 -56.21555519158204 0.010606266091976792 0.018273996122335115 -56.20167834103752 -38.75762345759113 -0.03826084259743067 -0.026574258663880412 -0.04573647643882824 0.004107331598128792 0.009542025299034257 0.04683983872001114 0.010108282151406632 -0.022660334877615658 -36.70223242839671 -0.04577363757870009 -0.0449511909632766 0.03758292955323553 0.01202313639719875 -0.021332364630147267 -0.04746939868964687 -0.023428387646303794 0.02621966213073572 -19.787990522254134 0.03801693460534511 -0.028474066726237753 -0.03347967537692073 -0.028846315201364107 0.025730549589363407 -0.02897168920912799 0.009054209101965423 -0.030165075542754466 24.015733616084585 -0.04445543202926814 -0.01099995561845155 28.910323502114714 -0.013693458750782322 -0.032662824263114905 28.8962985874894 -0.02737949003733673 0.0016571355856873989 10.710137782195536 2.4839245107847803 14.778439394920042 -73.02199543168162 20.495479495049555 -11.489190282767588 -28.551966990642907 10.355589619619616 -86.37873057255803 -29.95375446102691 -11.522866278972195 9.164698831393274 -0.45485252392605385 0.027285528406214822 -8.101462734544748 -0.01960031046601507 0.013992981598900193 44.540646906930654 -0.013882217119991725 0.02144055445109891 44.60361925026132 12.449558362969231 -0.0282289193147407 -0.01778746192592949 -0.044692421740814704 0.027640392707833146 0.004874013871990162 -0.03524118597724065 0.022540241092673215 0.04302105362903724 11.112279809288056 0.018711394173883896 0.0008759211950834237 0.02125135993533611 0.02333657221843469 0.02345775736088143 -0.011804121482806575 0.031103315381138585 0.018341493142268805 4.7548749868496545 0.02116007958614979 0.01633917374658301 -0.009115064988495314 -0.02775763031903816 -0.0026966243338737038 -0.024614777298191726 -0.027653893643787713 -0.03387092902161482 -5.618524228410121 0.0022385210930852403 0.02430968791087273 -6.675585819306735 0.0016854208170853902 0.0388232255036726 -6.769532566786889 0.032919205019582246 0.009927191107289492 0.022010319796710455 -0.010833272758583786 0.03386304656807919 8.03684969636895 3.4688822439221147 -19.211729518982356 -0.036992750751334874 10.44340370959591 -0.0035626588259599287 -5.663459652148586 -15.69125258890013 3.172042996729059 0.004502643051387464 0.009576151710268033 -0.03538083041547089 0.01845184058757318 4.671489754545663 -0.0054770489910829475 12.458050789878158 -8.213479038274683 6.897433866274564 -0.0232634040057478 46.34657569942907 -0.026625580933086215 -4.32756185593396 -14.733334311752008 -3.804888251722829 0.034005601027183065 -0.02263606398464532 -0.0046152514437039355 -0.004528656227134079 -10.755668646392246 0.02711724156443515 
-0.048216003142769026 0.023617540626152594 0.04968971939518884 -0.02000265516595271 0.0019535296295028755 -0.023712062977236863 4.63613910950176 2.1192301186363096 -2.1850313358040045 -0.7203530271354363 3.471087163096904 0.4531100538281767 -0.8668730744050352 -1.5912823861615142 2.032538589502418 -0.995401376235271 -0.7386500441778233 -0.11931902139601909 1.1531668132461201 13.655579800291997 -2.809812329751609 0.5005682761150111 -0.5759914569807291 -6.8153198170732425 1.577593296580692 -17.39295831303519 -0.631098559817476 -14.749339424882425 4.52503164527695 -18.4216460914082 77.62914247106903 -10.901862545776467 37.45435989319688 4.3541089586328345 4.559486714432648 102.48496051142911 20.869652538137665 -0.8125985374258673 -6.0298449711255175 4.507945795962671 -0.15956616981328844 -1.6175003550661786 -0.016157537312533585 0.0270094975402473 -56.239767487184 0.033332837665941084 0.044201363059303334 -56.258685397279784 -38.75540255347575 0.030613819811484956 0.011054694057771361 0.026783130086463575 -0.02773086605917886 -0.015547258752120962 -0.020634411230602414 0.014130932762971357 -0.00436575358092761 -36.67866140850512 -0.011667276297004888 0.025058981156647616 0.009757438815345026 0.01606838223134002 -0.008552470953791101 0.005637002573308205 -0.043801263299342155 0.04761843377159801 -19.758102290975142 0.045632853756185865 -0.0014362967722640948 0.04670259262741611 0.03471063324275842 -0.021432367185402108 -0.04647518397123004 -0.03848622041440921 -0.009550657864438448 24.05427451879749 0.021872474595133865 0.010694832771948834 28.873842865852094 0.024367298569901812 -0.01835347612745001 28.861263471304134 0.049701270364548994 -0.04297758219604737 10.257664536592378 2.3765787575004773 14.642699405338096 -71.92304226383614 20.761006136986683 -11.719593523895037 -26.954340601012703 8.911711438746694 -87.73725818886717 -29.372109773076517 -11.001093904001175 8.658602386601133 -0.4983461830621098 0.03806244690162862 -8.151908259489689 0.03517816507584798 -0.020011331945048484 44.563351625979294 0.04365341328487237 -0.015268091269639435 44.53387627434364 12.50302263983125 0.04294265387988514 -0.03813051744887621 -0.03234865959231353 0.023096135339031203 -0.007415415782885579 -0.00101684177746864 0.048943131913120115 -0.0027847592197566937 11.140588669733283 -0.0009183074380931125 -0.026599852298513114 -0.007465029852176377 -0.04107986281464673 -0.023503027655608997 0.030743146542613387 0.032633200404457496 -0.029487876856412593 4.754866962982272 -0.024322570039518182 -0.00924287825002872 -0.03847134461182973 0.018171354129248266 0.013757254946685208 -0.018937622670654564 0.02934541084382564 -0.010937013647494512 -5.618221813312726 -0.01088921551278598 -0.028409096069551682 -6.733128297336039 0.0221947737744525 -0.03714034216044253 -6.747556088514326 0.019643456400875104 -0.04787841733132839 -0.024355676934383896 -0.021161060649023955 0.04167211836766598 8.091743230118768 3.5404368344591206 -19.2301969546855 -0.04018788082923275 10.414274904693402 0.01431049465536397 -5.608449073844058 -15.690939535098025 3.158450612888798 0.014802065957262654 -0.007256173700341909 -0.009390578295500782 -0.03976873543918156 4.724505744882878 0.017171447561367546 12.46347120664952 -8.247582001613637 6.8698414521289966 0.0024836071137096013 46.394279293576474 -0.03190473993638993 -4.295805105278588 -14.716387187498988 -3.8681770061821616 -0.0232142707430608 -0.02379533048126198 -0.014211235763227158 0.04360768718780346 -10.766808561894363 -0.03716018648827816 
-0.019014842955196863 0.04359339799335152 0.031196943520701483 -0.011716333391927729 0.04567142316214429 -0.03853170725874296 4.448467358574707 2.287797143383589 -2.0739105093988695 -0.7232751879098575 3.4119817049203176 0.44987801690126894 -0.8533287554108006 -1.5051754535699227 1.963785495581458 -0.8509119258456237 -0.741294645142214 -0.11833275827248527 1.0401493841559657 13.171895469699834 -2.722257114047378 0.4566726172040167 -0.655375617609024 -6.995898228463285 1.4508141792753486 -17.492131674140314 -0.6416647651180394 -13.78813428283533 4.28883812407664 -18.076441766136888 74.74950668252326 -8.411625356414156 35.17777228804414 4.820878354808282 3.771685353542269 101.87792433861668 21.42489916893594 -0.7864597479388946 -6.19363855645971 4.481572603246021 -0.13038912418105025 -1.5458742899701174 -0.03263041248498961 0.0088518462083371 -56.228797688813394 -0.018522832065764678 0.01611388054927815 -56.19446846745198 -38.73376635312726 0.033787520082643574 -0.04643684139308325 -0.0392651115744775 0.03191141218724413 0.048387007855038106 -0.016659909625333712 -0.00866164125903596 -0.025670853393395445 -36.644308629304795 -0.035286514238917634 0.0019995729631203368 -0.007257356471493042 0.04449670995692571 -0.038801454088691324 0.04134805649920372 0.01153194058236519 0.008213066929861491 -19.79150632426265 -0.027105532130453042 0.030167395937695872 -0.009222769413721181 0.01637414862753234 0.011252587064822668 0.00453916138163414 0.004517970849744578 0.01070286547540491 24.042111350106417 0.02816334255423673 -0.010328688691061147 28.87625170311703 -0.027126194769630387 0.010218459874457225 28.826637931979636 -0.02860046905196525 -0.03970517630968131 9.71711029672237 2.309851296252921 14.50667502732887 -71.04395653401214 20.83430328085783 -11.620538873655466 -25.537642708381487 7.843696955272758 -88.25713678438642 -28.528540306943235 -10.338069900082578 7.95634863902266 -0.5211820066005519 0.04122694440824537 -8.15397058577041 -0.011962314499422507 -0.049167253254474415 44.57146225140659 0.003144705612772162 0.005242202379085287 44.609364684440585 12.460003796651634 0.044796909378230956 0.010097298011205777 0.03665209921163576 0.009474068161409378 -0.033297335954403665 0.015612349192528113 0.04379421213802267 -0.014642322427812873 11.089209871461538 -0.02261250496060663 -0.0024259251629810455 0.016037540405299387 0.01968985601689702 -0.02952718720404561 -0.0191497305744604 -0.0007879779439971465 -0.010876866024545096 4.750038814106529 0.04245351343221607 0.04044254962003826 0.022182925213703703 -0.021908626106485418 -0.019943723428978464 0.015610784897212768 0.04442833220442308 0.03746333688283002 -5.581480032572878 -0.013614452775379633 -0.02651053741045152 -6.729204322358159 -0.02855036674652103 0.020789906839178595 -6.714549472542234 -0.015741096019327154 -0.020438892569786777 -0.022185211095073026 0.007545845709914948 -0.029702850710859045 8.038253299177121 3.477420207680983 -19.19196858192954 -0.007550179579834267 10.381503393626451 0.021502607334739465 -5.603592558302509 -15.643275334451316 3.216329402972563 0.022137648117704047 0.04350357696950324 0.014170457188246536 0.010493774297725193 4.6596269886424 -0.031632543893165874 12.413217966987522 -8.20614718684424 6.8714297900338535 -0.02195538420341295 46.40501632707132 -0.037432760610159745 -4.353194217419888 -14.747171633278422 -3.804070490235587 -0.02534400577073332 -0.01827561517402399 -0.021329145141485175 0.038195321058261976 -10.794437561324573 -0.021288430377675634 
-0.018859506771325384 -0.0039685685191528305 0.04171826351040008 0.00929916458869129 -0.01685755000913504 0.022249450420420824 4.2305413339716935 2.568647058058003 -2.021346630643633 -0.6879315495621056 3.499755460794229 0.3687108860311862 -0.8202315663599756 -1.3789639227638468 1.87870414771179 -0.8028907170599918 -0.7516941945570651 -0.19395700272412714 0.9093782401177624 12.756306386852675 -2.6724512207643984 0.339518408344997 -0.8095206558192135 -7.009086163293042 1.4073610129627436 -17.53392261900526 -0.6157639524107618 -12.733909838860924 4.0934383812464725 -17.587324905775297 71.51784522416798 -5.382596935952807 32.03930526143862 4.33621367475896 2.6136280171371054 101.4389470429332 22.059836096332685 -0.7681145790311363 -6.301777276774735 4.5640680946763865 -0.0935039607590205 -1.5545906659649333 -0.012022072551936222 0.013536019324806614 -56.26219284527135 -0.014620872774245936 0.006168621962163324 -56.22346847243246 -38.75816944404498 -0.010534542582007311 -0.009976726540858303 -0.0378641908693837 0.01728120807276589 -0.010248675097481423 0.026883028732388285 -0.012049398910415437 0.017831281375749877 -36.70595760833254 0.0024621094712057533 -0.015066507636366171 -0.026868183812063556 -0.005222751717689629 -0.03144970632631463 0.009930329640407744 -0.005047325057490892 -0.04252635977588652 -19.745646050465634 0.005471851604067885 0.04586945952734483 -0.026406198252274457 0.01924070581591515 0.03294377463550605 0.04414809090478901 -0.026272821242862825 -0.0017992225759680964 24.04360202382595 -0.04734335473876627 0.04324380393693933 28.84413088616253 0.04220714621204793 0.04480225816829528 28.830672717748506 0.01274619476138669 -0.04189080542789345 9.146661863800503 2.2497039779559582 14.412602927519679 -70.06796082673704 20.184638530329554 -11.495767801531125 -24.675194925013123 7.196077697264511 -88.73486093805114 -28.107385138069652 -9.846386040016071 7.361499793065578 -0.481680768476131 0.06768681814366653 -8.129909394761196 0.021270180021252784 0.004783310751596141 44.59383241755892 -0.0487004757469275 0.042014495887708045 44.58413272603128 12.482097096065443 0.013560792808409243 -0.00916547347628917 0.012998888378602864 0.02223074958759924 0.01660813070027924 0.021718671846881043 0.006211657734377836 0.03673708324478864 11.083879587459629 0.016224351024590616 0.04106734775720314 0.03408199187027528 0.04965812423178155 0.03416741117536263 0.017952262500493785 0.032805775368459716 -0.018224909584968012 4.750558359154039 0.021699644451596937 0.030286825811083523 -0.02763062427189654 0.0007094384450554372 0.04585935294490977 -0.01242503512556746 -0.04106953008949696 -0.011536414362199736 -5.603481548074318 0.011261874016565513 0.007427987968978371 -6.678561017877341 0.01253102877931765 -0.03272297957733546 -6.732988725595089 0.04168737620825339 0.004003714943583212 -0.007492760998243016 -0.026449036920405695 -0.02257173786971631 8.027281393805987 3.5210452294436587 -19.22661432447668 -0.03840435783161231 10.374982388723563 0.053780086726871096 -5.664027666200487 -15.645715976464901 3.231632309337546 -0.03096796571024914 0.01360795850083599 -0.048286233037178765 0.002173144623676401 4.677108415862199 -0.011158566005561163 12.425457280844395 -8.232399914973033 6.846792200190773 -0.004543251341510014 46.41227778585459 -0.036450597740818456 -4.336196959738316 -14.767381941955046 -3.8338159215755327 -0.03352981754753443 0.02703494769299541 -0.03794954414771191 0.011609715091262249 -10.708190206288977 -0.0443790514966066 
